<svg id="idea" xmlns="http://www.w3.org/2000/svg" width="47.563" height="57.062" viewBox="0 0 47.563 57.062">
  <path id="Path_1524" data-name="Path 1524" d="M147.194,134.963c-2.658,2.658-2.326,8.023-2.326,8.023H131.385s.285-5.364-2.326-8.023a13.72,13.72,0,1,1,18.134,0Z" transform="translate(-114.308 -97.65)" fill="#ffd517"/>
  <g id="Group_609" data-name="Group 609" transform="translate(16.65 48.279)">
    <path id="Path_1525" data-name="Path 1525" d="M194.6,408.082a1.276,1.276,0,0,1-1.282,1.282H181.594a1.276,1.276,0,0,1-1.282-1.282h0a1.276,1.276,0,0,1,1.282-1.282h11.678a1.318,1.318,0,0,1,1.329,1.282Z" transform="translate(-180.312 -406.8)" fill="#e5e5e5"/>
    <path id="Path_1526" data-name="Path 1526" d="M205.888,452.882a1.276,1.276,0,0,1-1.282,1.282h-8.213a1.276,1.276,0,0,1-1.282-1.282h0a1.276,1.276,0,0,1,1.282-1.282h8.213a1.276,1.276,0,0,1,1.282,1.282Z" transform="translate(-193.356 -446.283)" fill="#e5e5e5"/>
  </g>
  <g id="Group_610" data-name="Group 610">
    <path id="Path_1527" data-name="Path 1527" d="M141.208,128.74a14.66,14.66,0,1,0-19.511.142c2.326,2.326,2.089,7.263,2.089,7.311a1.135,1.135,0,0,0,.237.665.937.937,0,0,0,.665.285h13.435a.937.937,0,0,0,.665-.285.889.889,0,0,0,.237-.665c0-.047-.237-4.985,2.089-7.311C141.16,128.835,141.208,128.788,141.208,128.74Zm-1.329-1.187a.474.474,0,0,0-.19.237c-2.089,2.231-2.421,5.887-2.469,7.6H125.589c-.047-1.756-.427-5.554-2.658-7.785a12.86,12.86,0,1,1,21.315-9.684A12.766,12.766,0,0,1,139.879,127.553Z" transform="translate(-107.61 -90.952)" fill="#210b20"/>
    <path id="Path_1528" data-name="Path 1528" d="M233.614,135.2a.9.9,0,0,0,0,1.8,9.644,9.644,0,0,1,9.637,9.637.9.9,0,1,0,1.8,0A11.447,11.447,0,0,0,233.614,135.2Z" transform="translate(-209.843 -119.154)" fill="#210b20"/>
    <path id="Path_1529" data-name="Path 1529" d="M188.805,401.384a2.178,2.178,0,0,0-2.184-2.184H174.9a2.184,2.184,0,1,0,0,4.367h11.678A2.189,2.189,0,0,0,188.805,401.384Zm-2.231.38H174.9a.38.38,0,1,1,0-.76h11.678a.374.374,0,0,1,.38.38C187,401.621,186.811,401.763,186.574,401.763Z" transform="translate(-156.964 -351.822)" fill="#210b20"/>
    <path id="Path_1530" data-name="Path 1530" d="M197.908,444H189.7a2.184,2.184,0,0,0,0,4.367h8.213a2.178,2.178,0,0,0,2.184-2.184A2.209,2.209,0,0,0,197.908,444Zm0,2.563H189.7a.38.38,0,0,1,0-.76h8.213a.374.374,0,0,1,.38.38A.349.349,0,0,1,197.908,446.563Z" transform="translate(-170.007 -391.306)" fill="#210b20"/>
    <path id="Path_1531" data-name="Path 1531" d="M234.516,6.978V.9a.9.9,0,0,0-1.8,0V7.026a.9.9,0,0,0,.9.9A.942.942,0,0,0,234.516,6.978Z" transform="translate(-209.843)" fill="#210b20"/>
    <path id="Path_1532" data-name="Path 1532" d="M331,36.883a.9.9,0,0,0-1.234.237L326.4,42.2a.9.9,0,0,0,.237,1.234.916.916,0,0,0,.475.142.991.991,0,0,0,.76-.38l3.371-5.08A.911.911,0,0,0,331,36.883Z" transform="translate(-292.275 -32.373)" fill="#210b20"/>
    <path id="Path_1533" data-name="Path 1533" d="M119,41.444a.9.9,0,0,0,.76-1.377l-3.276-5.127a.9.9,0,0,0-1.519.949l3.276,5.127A.912.912,0,0,0,119,41.444Z" transform="translate(-105.96 -30.431)" fill="#210b20"/>
    <path id="Path_1534" data-name="Path 1534" d="M40.479,115.977l5.364,2.9a.706.706,0,0,0,.427.095.979.979,0,0,0,.807-.475.893.893,0,0,0-.38-1.234l-5.364-2.9a.893.893,0,0,0-1.234.38A.966.966,0,0,0,40.479,115.977Z" transform="translate(-40.017 -100.691)" fill="#210b20"/>
    <path id="Path_1535" data-name="Path 1535" d="M381.151,119.437a1.388,1.388,0,0,0,.427-.095l5.364-2.9a.913.913,0,1,0-.854-1.614l-5.364,2.9a.905.905,0,0,0,.427,1.709Z" transform="translate(-339.862 -101.113)" fill="#210b20"/>
  </g>
</svg>
