<svg xmlns="http://www.w3.org/2000/svg" width="226.44" height="145.146" xmlns:v="https://vecta.io/nano"><defs><filter id="A" x="0" y="3.236" width="20" height="20" filterUnits="userSpaceOnUse"><feOffset dy="1"/><feGaussianBlur stdDeviation="2" result="A"/><feFlood flood-color="#59c5f5"/><feComposite operator="in" in2="A"/><feComposite in="SourceGraphic"/></filter><filter id="B" x="68" y="56.236" width="21" height="21" filterUnits="userSpaceOnUse"><feOffset dy="1"/><feGaussianBlur stdDeviation="2" result="A"/><feFlood flood-color="#59c5f5"/><feComposite operator="in" in2="A"/><feComposite in="SourceGraphic"/></filter><filter id="C" x="124" y="47.236" width="21" height="21" filterUnits="userSpaceOnUse"><feOffset dy="1"/><feGaussianBlur stdDeviation="2" result="A"/><feFlood flood-color="#59c5f5"/><feComposite operator="in" in2="A"/><feComposite in="SourceGraphic"/></filter><filter id="D" x="197" y="90.236" width="21" height="21" filterUnits="userSpaceOnUse"><feOffset dy="1"/><feGaussianBlur stdDeviation="2" result="A"/><feFlood flood-color="#59c5f5"/><feComposite operator="in" in2="A"/><feComposite in="SourceGraphic"/></filter></defs><g transform="translate(.313 2)"><g fill="none" stroke="#707070"><path d="M0 129.03h211.76" opacity=".3"/><path opacity=".1" d="M0 119.166h211.76M0 104.86h211.76M0 91.05h211.76M0 76.745h211.76M0 62.44h211.76M0 48.136h211.76M0 34.325h211.76M0 20.02h211.76M0 5.716h211.76" stroke-width=".5"/><path d="M.493 129.03V5.223" opacity=".3"/><path opacity=".1" d="M10.358 129.03V5.223M23.183 129.03V5.223m12.33 123.807V5.223M48.34 129.03V5.223m8.325 123.807V5.223m11.7 123.807V5.223m11.24 123.807V5.223m11.69 123.807V5.223m11.7 123.807V5.223m11.24 123.807V5.223M125.9 129.03V5.223m11.7 123.807V5.223m11.24 123.807V5.223m11.7 123.807V5.223m8.326 123.807V5.223M181.67 129.03V5.223m12.332 123.807V5.223m12.825 123.807V5.223" stroke-width=".5"/></g><path d="M17.593.52a2.26 2.26 0 0 1 .371-1.26 2.58 2.58 0 0 1 1.108-.913 4.15 4.15 0 0 1 1.771-.345 4.15 4.15 0 0 1 1.771.345c.45.195.835.512 1.114.915.25.373.38.812.378 1.26a2.2 2.2 0 0 1-.4 1.327 2.28 2.28 0 0 1-1.2.81c.538.15 1.016.465 1.367.9a2.39 2.39 0 0 1 .475 1.5c.04.825-.322 1.62-.97 2.13a3.98 3.98 0 0 1-2.53.76 3.95 3.95 0 0 1-2.527-.763c-.644-.514-1.002-1.306-.962-2.13-.018-.542.15-1.074.473-1.508.35-.435.83-.75 1.367-.9a2.27 2.27 0 0 1-1.2-.81A2.2 2.2 0 0 1 17.593.52zm1.5.24a1.36 1.36 0 0 0 .471 1.108 1.94 1.94 0 0 0 1.28.391 1.97 1.97 0 0 0 1.287-.391A1.35 1.35 0 0 0 22.608.76a1.36 1.36 0 0 0-.484-1.112c-.365-.28-.817-.42-1.276-.4a1.93 1.93 0 0 0-1.274.4A1.37 1.37 0 0 0 19.092.76zm-.265 4.22a1.57 1.57 0 0 0 .543 1.27c.42.324.943.487 1.473.458.53.03 1.052-.134 1.472-.458.368-.315.568-.783.544-1.267.03-.482-.18-.947-.564-1.24-.424-.294-.932-.442-1.448-.42-.516-.02-1.024.13-1.446.425a1.44 1.44 0 0 0-.575 1.234zm8.32 1.06v1.672h-1.714V6.04zm7.6-6.5h-4.63v2.786a2.18 2.18 0 0 1 .9-.657 3.29 3.29 0 0 1 1.286-.246 2.96 2.96 0 0 1 1.632.418 2.53 2.53 0 0 1 .962 1.107 3.66 3.66 0 0 1 .311 1.526c.04.87-.255 1.72-.823 2.38-.625.637-1.497.97-2.387.9a3.5 3.5 0 0 1-2.375-.783 2.87 2.87 0 0 1-.982-2.083h1.486a1.84 1.84 0 0 0 .591 1.128 1.76 1.76 0 0 0 1.2.411c.5.038 1-.163 1.353-.544a2.19 2.19 0 0 0 .452-1.446c.028-.488-.14-.968-.465-1.333a1.75 1.75 0 0 0-1.327-.485 2.09 2.09 0 0 0-1.068.265c-.3.16-.523.404-.67.7H28.7v-5.4h6.023zm3.53-1.327a1.97 1.97 0 0 1 1.446.551 2 2 0 0 1 .557 1.493 1.98 1.98 0 0 1-.557 1.486c-.4.37-.9.566-1.446.544a2.01 2.01 0 0 1-1.453-.544A1.97 1.97 0 0 1 36.25.255a1.99 1.99 0 0 1 .564-1.493 1.99 1.99 0 0 1 1.451-.55zm5.612.12l-5.296 9.38h-1.486l5.307-9.38zM37.28.255c-.015.3.08.576.265.8a.9.9 0 0 0 .7.3.87.87 0 0 0 .7-.305 1.15 1.15 0 0 0 .272-.8 1.17 1.17 0 0 0-.268-.802.9.9 0 0 0-.7-.305c-.267-.01-.525.103-.7.305a1.19 1.19 0 0 0-.269.807zm5.44 3.5a2.01 2.01 0 0 1 1.453.544 1.97 1.97 0 0 1 .564 1.489 1.99 1.99 0 0 1-.564 1.493 1.99 1.99 0 0 1-1.453.551c-.535.018-1.054-.18-1.44-.552a1.99 1.99 0 0 1-.564-1.492c-.027-.55.178-1.086.564-1.48.385-.37.905-.57 1.44-.55zm-.973 2.033a1.19 1.19 0 0 0 .265.809c.175.202.433.314.7.305a.87.87 0 0 0 .7-.305 1.17 1.17 0 0 0 .272-.809 1.15 1.15 0 0 0-.272-.8.9.9 0 0 0-.7-.305c-.267-.01-.525.103-.7.305a1.17 1.17 0 0 0-.265.8zm29.75 37.74q-.234-1.534-1.6-1.534c-.6-.03-1.17.27-1.482.786a4.76 4.76 0 0 0-.494 2.463l.013.442a1.9 1.9 0 0 1 .845-1.118c.46-.285.993-.43 1.534-.416a2.79 2.79 0 0 1 2.12.806 3.17 3.17 0 0 1 .768 2.279c.01.547-.1 1.1-.35 1.58-.235.462-.6.845-1.053 1.1a3.38 3.38 0 0 1-1.729.411 2.92 2.92 0 0 1-2.73-1.235 6.59 6.59 0 0 1-.741-3.393c-.086-1.28.188-2.56.8-3.692.585-.844 1.577-1.3 2.6-1.222a2.71 2.71 0 0 1 2.073.767c.496.544.792 1.24.84 1.976zm-3.432 3.536a2.03 2.03 0 0 0 .494 1.4 1.83 1.83 0 0 0 1.456.562 1.78 1.78 0 0 0 1.307-.481 1.8 1.8 0 0 0 .488-1.339 1.92 1.92 0 0 0-.494-1.417 1.81 1.81 0 0 0-1.339-.494 2.08 2.08 0 0 0-1.34.455c-.4.317-.602.803-.573 1.304zm7.9 1.534v1.638H74.28v-1.638zm7.43-6.37h-4.532v2.73a2.13 2.13 0 0 1 .884-.644 3.22 3.22 0 0 1 1.261-.24 2.9 2.9 0 0 1 1.6.41 2.48 2.48 0 0 1 .943 1.086 3.59 3.59 0 0 1 .304 1.494c.04.852-.25 1.687-.806 2.334a3 3 0 0 1-2.34.89c-.844.04-1.672-.233-2.327-.767a2.81 2.81 0 0 1-.962-2.041h1.456a1.8 1.8 0 0 0 .578 1.105c.33.275.75.418 1.177.4.5.037 1-.16 1.326-.533a2.15 2.15 0 0 0 .438-1.416 1.81 1.81 0 0 0-.451-1.3 1.72 1.72 0 0 0-1.3-.474 2.05 2.05 0 0 0-1.049.255 1.59 1.59 0 0 0-.657.69h-1.443v-5.3h5.9zm3.458-1.3a1.93 1.93 0 0 1 1.417.54 1.96 1.96 0 0 1 .546 1.462 1.94 1.94 0 0 1-.541 1.456 1.94 1.94 0 0 1-1.417.533 1.96 1.96 0 0 1-1.424-.533 1.93 1.93 0 0 1-.553-1.456 1.95 1.95 0 0 1 .553-1.462 1.95 1.95 0 0 1 1.424-.54zm5.5.117l-5.183 9.2h-1.456l5.2-9.2zm-6.458 1.885a1.14 1.14 0 0 0 .26.786c.174.196.427.303.7.293a.89.89 0 0 0 .7-.3 1.13 1.13 0 0 0 .267-.78 1.15 1.15 0 0 0-.27-.793.89.89 0 0 0-.7-.3.87.87 0 0 0-.689.3c-.18.224-.272.507-.256.794zm5.33 3.432a1.96 1.96 0 0 1 1.424.533 1.93 1.93 0 0 1 .552 1.456 1.95 1.95 0 0 1-1.976 2.002 1.89 1.89 0 0 1-1.4-.54 1.95 1.95 0 0 1-.552-1.463 1.93 1.93 0 0 1 .552-1.45 1.94 1.94 0 0 1 1.41-.54zm-.95 2c-.014.287.078.57.26.793a.87.87 0 0 0 .689.3.89.89 0 0 0 .7-.3c.186-.22.28-.504.267-.793a1.13 1.13 0 0 0-.267-.78.89.89 0 0 0-.7-.3.87.87 0 0 0-.689.3c-.18.22-.272.497-.26.78zm34.525-7.837q-.2-1.312-1.367-1.312a1.4 1.4 0 0 0-1.267.673 4.07 4.07 0 0 0-.422 2.107l.01.378a1.59 1.59 0 0 1 .723-.956 2.38 2.38 0 0 1 1.31-.358 2.38 2.38 0 0 1 1.812.689 2.71 2.71 0 0 1 .656 1.947 2.96 2.96 0 0 1-.3 1.35c-.2.397-.513.726-.9.945a2.89 2.89 0 0 1-1.478.35c-.913.105-1.8-.3-2.334-1.056a5.63 5.63 0 0 1-.634-2.9 5.88 5.88 0 0 1 .678-3.157 2.45 2.45 0 0 1 2.223-1.045 2.32 2.32 0 0 1 1.773.656c.424.466.677 1.062.717 1.7zm-2.935 3.024a1.77 1.77 0 0 0 .423 1.208c.322.34.78.517 1.245.484a1.52 1.52 0 0 0 1.117-.411 1.54 1.54 0 0 0 .417-1.145 1.64 1.64 0 0 0-.422-1.212c-.308-.292-.722-.444-1.145-.422a1.78 1.78 0 0 0-1.144.386 1.34 1.34 0 0 0-.491 1.111zm6.748 1.308v1.4h-1.434v-1.4zm5.692-5.536l-2.924 6.936h-1.334l2.968-6.792h-3.9v-1.1h5.18zm6.3.1h-3.88v2.337c.2-.246.46-.435.756-.55.343-.14.7-.2 1.08-.206a2.48 2.48 0 0 1 1.367.35c.354.223.635.546.806.928a3.07 3.07 0 0 1 .261 1.278 2.86 2.86 0 0 1-.689 2 2.56 2.56 0 0 1-2 .761 2.93 2.93 0 0 1-1.99-.656 2.4 2.4 0 0 1-.823-1.745h1.245a1.54 1.54 0 0 0 .495.945 1.47 1.47 0 0 0 1.006.345 1.39 1.39 0 0 0 1.134-.456 1.84 1.84 0 0 0 .382-1.215c.023-.4-.116-.8-.4-1.117a1.47 1.47 0 0 0-1.116-.406 1.75 1.75 0 0 0-.895.222c-.243.135-.438.34-.56.6h-1.24V38.28h5.05zm2.957-1.112a1.65 1.65 0 0 1 1.212.461 1.68 1.68 0 0 1 .467 1.251 1.66 1.66 0 0 1-.465 1.247 1.66 1.66 0 0 1-1.212.456 1.68 1.68 0 0 1-1.217-.456 1.65 1.65 0 0 1-.472-1.245 1.67 1.67 0 0 1 .472-1.251 1.67 1.67 0 0 1 1.217-.46zm4.7.1l-4.43 7.86h-1.245l4.447-7.856zm-5.52 1.615c-.013.244.066.484.222.673a.75.75 0 0 0 .589.25.76.76 0 0 0 .595-.256.96.96 0 0 0 .228-.667.98.98 0 0 0-.228-.678.76.76 0 0 0-.592-.256.74.74 0 0 0-.589.256 1 1 0 0 0-.225.678zm4.558 2.935a1.68 1.68 0 0 1 1.217.456 1.65 1.65 0 0 1 .472 1.245 1.67 1.67 0 0 1-.472 1.251 1.67 1.67 0 0 1-1.217.457c-.448.016-.883-.15-1.206-.46a1.67 1.67 0 0 1-.472-1.251 1.68 1.68 0 0 1 .472-1.24c.324-.3.76-.475 1.206-.458zm-.812 1.7a1 1 0 0 0 .222.678.74.74 0 0 0 .589.256.76.76 0 0 0 .595-.256.98.98 0 0 0 .228-.678.97.97 0 0 0-.228-.667.76.76 0 0 0-.595-.256.74.74 0 0 0-.589.256.98.98 0 0 0-.222.668z" opacity=".9"/><path d="M6.173 141.27a17.98 17.98 0 0 0 3.09-2.59 3.65 3.65 0 0 0 1.161-2.352 1.55 1.55 0 0 0-.317-1.025 1.25 1.25 0 0 0-1.018-.381 1.31 1.31 0 0 0-1.1.47 2.34 2.34 0 0 0-.417 1.34H6.25a3.16 3.16 0 0 1 .887-2.2c.557-.516 1.296-.8 2.055-.762a2.71 2.71 0 0 1 1.924.649 2.33 2.33 0 0 1 .7 1.793 3.59 3.59 0 0 1-.566 1.858 7.73 7.73 0 0 1-1.433 1.73 12.06 12.06 0 0 1-1.8 1.364h4v1.108H6.172zm6.9-3.2a5.9 5.9 0 0 0 .715 3.15c.528.78 1.44 1.214 2.378 1.13a2.59 2.59 0 0 0 2.382-1.141 5.91 5.91 0 0 0 .715-3.144 5.85 5.85 0 0 0-.715-3.127c-.527-.785-1.44-1.22-2.382-1.137a2.6 2.6 0 0 0-2.382 1.131 5.85 5.85 0 0 0-.715 3.133zm4.836 0c.035.758-.088 1.515-.36 2.223a1.37 1.37 0 0 1-1.382.774 1.38 1.38 0 0 1-1.394-.774 5.45 5.45 0 0 1-.357-2.227 5.36 5.36 0 0 1 .357-2.2 1.39 1.39 0 0 1 1.394-.762c.577-.06 1.13.246 1.382.768.272.698.395 1.446.36 2.194zm2.12-2.87v-1.28h2.688v8.4h-1.43v-7.135zm3.914 5.32v-1.143l4.18-5.525h1.453v5.48h1.18v1.2h-1.18v1.8h-1.37v-1.8zm4.36-5.05l-2.953 3.86h2.954zm34.872 5.075a16.73 16.73 0 0 0 2.88-2.414 3.41 3.41 0 0 0 1.084-2.2 1.45 1.45 0 0 0-.295-.956c-.246-.257-.596-.4-.95-.356a1.22 1.22 0 0 0-1.023.439 2.19 2.19 0 0 0-.389 1.251h-1.227a2.95 2.95 0 0 1 .828-2.057 2.65 2.65 0 0 1 1.918-.71 2.53 2.53 0 0 1 1.8.606c.448.438.684 1.048.65 1.673a3.35 3.35 0 0 1-.528 1.734 7.22 7.22 0 0 1-1.34 1.617 11.26 11.26 0 0 1-1.679 1.273h3.724v1.034h-5.453zm6.436-3a5.51 5.51 0 0 0 .667 2.94 2.42 2.42 0 0 0 2.224 1.062 2.42 2.42 0 0 0 2.223-1.067c.5-.898.72-1.914.667-2.935a5.46 5.46 0 0 0-.667-2.918 2.42 2.42 0 0 0-2.223-1.062c-.878-.078-1.73.326-2.224 1.056-.5.893-.722 1.906-.667 2.924zm4.513 0a5.12 5.12 0 0 1-.333 2.076 1.28 1.28 0 0 1-1.29.723 1.29 1.29 0 0 1-1.3-.723 5.12 5.12 0 0 1-.333-2.079 5 5 0 0 1 .333-2.057 1.3 1.3 0 0 1 1.3-.711c.538-.057 1.054.23 1.3.717a5 5 0 0 1 .334 2.054zm1.98-2.68v-1.2h2.513v7.845h-1.334v-6.655zm8.152.923q-.2-1.312-1.37-1.312a1.4 1.4 0 0 0-1.267.673 4.07 4.07 0 0 0-.422 2.106l.01.378a1.59 1.59 0 0 1 .723-.956 2.38 2.38 0 0 1 1.311-.357 2.38 2.38 0 0 1 1.815.69 2.71 2.71 0 0 1 .656 1.945 2.96 2.96 0 0 1-.3 1.35c-.2.397-.513.726-.9.945a2.89 2.89 0 0 1-1.478.35c-.915.107-1.813-.3-2.338-1.056a5.63 5.63 0 0 1-.634-2.9 5.88 5.88 0 0 1 .678-3.157 2.45 2.45 0 0 1 2.223-1.045 2.32 2.32 0 0 1 1.773.656c.425.465.68 1.06.72 1.7zm-2.938 3.023a1.77 1.77 0 0 0 .422 1.21c.322.34.78.517 1.245.484a1.52 1.52 0 0 0 1.118-.414 1.54 1.54 0 0 0 .417-1.145 1.64 1.64 0 0 0-.422-1.212 1.55 1.55 0 0 0-1.142-.422 1.78 1.78 0 0 0-1.145.39 1.34 1.34 0 0 0-.493 1.111zm39.082 2.53a16.73 16.73 0 0 0 2.885-2.418 3.41 3.41 0 0 0 1.084-2.2 1.45 1.45 0 0 0-.295-.956c-.246-.257-.596-.4-.95-.356a1.22 1.22 0 0 0-1.023.439 2.19 2.19 0 0 0-.389 1.251h-1.234a2.95 2.95 0 0 1 .828-2.057 2.65 2.65 0 0 1 1.918-.71 2.53 2.53 0 0 1 1.8.606c.448.438.684 1.048.65 1.673a3.35 3.35 0 0 1-.533 1.739 7.22 7.22 0 0 1-1.34 1.617 11.26 11.26 0 0 1-1.678 1.273h3.724v1.034H120.4zm6.436-3a5.51 5.51 0 0 0 .667 2.94 2.42 2.42 0 0 0 2.224 1.061 2.42 2.42 0 0 0 2.223-1.067 5.43 5.43 0 0 0 .667-2.934 5.46 5.46 0 0 0-.667-2.918 2.42 2.42 0 0 0-2.223-1.062c-.878-.078-1.73.326-2.224 1.056-.5.893-.722 1.906-.667 2.924zm4.513 0a5.12 5.12 0 0 1-.333 2.078 1.28 1.28 0 0 1-1.29.723 1.29 1.29 0 0 1-1.3-.723 5.12 5.12 0 0 1-.333-2.078 5 5 0 0 1 .333-2.057 1.3 1.3 0 0 1 1.3-.711c.538-.057 1.054.23 1.3.717a5 5 0 0 1 .334 2.05zm1.98-2.68v-1.2h2.508v7.848h-1.33v-6.66zm4.046.634a1.9 1.9 0 0 1 .312-1.056 2.17 2.17 0 0 1 .928-.767c.467-.204.974-.303 1.484-.3.5-.014 1.017.085 1.484.3a2.21 2.21 0 0 1 .934.767 1.87 1.87 0 0 1 .32 1.056 1.84 1.84 0 0 1-.339 1.112c-.253.33-.606.568-1.006.678a2.25 2.25 0 0 1 1.145.746 2 2 0 0 1 .4 1.262c.034.693-.27 1.36-.814 1.788a3.33 3.33 0 0 1-2.123.639 3.31 3.31 0 0 1-2.118-.639 2.15 2.15 0 0 1-.806-1.784 2 2 0 0 1 .4-1.262 2.25 2.25 0 0 1 1.145-.75 1.85 1.85 0 0 1-1.006-.678 1.84 1.84 0 0 1-.339-1.112zm1.256.2a1.14 1.14 0 0 0 .395.928c.307.233.688.35 1.073.328a1.65 1.65 0 0 0 1.078-.328 1.13 1.13 0 0 0 .4-.928 1.14 1.14 0 0 0-.406-.934c-.307-.233-.687-.35-1.072-.33a1.61 1.61 0 0 0-1.062.33 1.15 1.15 0 0 0-.405.934zm-.22 3.536c-.02.405.148.798.456 1.062a1.87 1.87 0 0 0 1.234.384 1.85 1.85 0 0 0 1.237-.385c.306-.265.473-.657.452-1.06a1.21 1.21 0 0 0-.472-1.04 1.99 1.99 0 0 0-1.217-.35c-.432-.017-.858.108-1.212.356a1.21 1.21 0 0 0-.478 1.034zm37.962 2.033a17.98 17.98 0 0 0 3.09-2.59 3.65 3.65 0 0 0 1.159-2.352c.02-.368-.093-.73-.316-1.024a1.25 1.25 0 0 0-1.018-.381 1.31 1.31 0 0 0-1.1.47 2.34 2.34 0 0 0-.417 1.34h-1.322a3.16 3.16 0 0 1 .887-2.2c.557-.516 1.296-.8 2.055-.762a2.71 2.71 0 0 1 1.924.649 2.33 2.33 0 0 1 .7 1.793 3.59 3.59 0 0 1-.566 1.858c-.4.645-.875 1.228-1.435 1.733a12.06 12.06 0 0 1-1.8 1.364h4v1.108h-5.832zm6.9-3.2a5.9 5.9 0 0 0 .715 3.15c.528.78 1.44 1.214 2.378 1.13a2.59 2.59 0 0 0 2.382-1.141 5.91 5.91 0 0 0 .715-3.144 5.85 5.85 0 0 0-.715-3.126c-.527-.785-1.44-1.22-2.382-1.137a2.6 2.6 0 0 0-2.382 1.13 5.85 5.85 0 0 0-.715 3.133zm4.836 0c.037.76-.085 1.517-.357 2.227a1.37 1.37 0 0 1-1.382.774 1.38 1.38 0 0 1-1.394-.774 5.45 5.45 0 0 1-.357-2.227 5.36 5.36 0 0 1 .357-2.2 1.39 1.39 0 0 1 1.394-.762c.577-.06 1.13.246 1.382.768a5.35 5.35 0 0 1 .353 2.2zm2.442 3.2c1.123-.745 2.158-1.614 3.086-2.6a3.65 3.65 0 0 0 1.162-2.352c.02-.368-.093-.732-.316-1.025a1.25 1.25 0 0 0-1.018-.381 1.31 1.31 0 0 0-1.1.47 2.34 2.34 0 0 0-.417 1.34h-1.318a3.16 3.16 0 0 1 .887-2.2c.557-.516 1.296-.8 2.055-.762a2.71 2.71 0 0 1 1.924.649 2.33 2.33 0 0 1 .7 1.793 3.59 3.59 0 0 1-.573 1.855 8.02 8.02 0 0 1-1.432 1.733 12.06 12.06 0 0 1-1.8 1.364h3.992v1.108h-5.837zm6.9-3.2a5.9 5.9 0 0 0 .715 3.15 2.59 2.59 0 0 0 2.373 1.13 2.59 2.59 0 0 0 2.384-1.141 5.91 5.91 0 0 0 .715-3.144 5.85 5.85 0 0 0-.715-3.127c-.527-.785-1.44-1.22-2.382-1.137a2.6 2.6 0 0 0-2.384 1.131c-.526.957-.773 2.042-.714 3.133zm4.836 0c.034.758-.1 1.515-.364 2.223a1.37 1.37 0 0 1-1.382.774 1.38 1.38 0 0 1-1.394-.774 5.45 5.45 0 0 1-.357-2.227 5.36 5.36 0 0 1 .357-2.2 1.39 1.39 0 0 1 1.394-.762c.576-.062 1.128.244 1.382.764.27.7.392 1.45.355 2.198z" opacity=".5" fill="#757575"/><g transform="translate(-.31 -2)" filter="url(#A)"><circle cx="10" cy="12.24" r="4" fill="#2380f7"/></g><g transform="translate(-.31 -2)" filter="url(#B)"><circle cx="78.5" cy="65.74" r="4.5" fill="#2380f7"/></g><g transform="translate(-.31 -2)" filter="url(#C)"><circle cx="134.5" cy="56.74" r="4.5" fill="#2380f7"/></g><g transform="translate(-.31 -2)" filter="url(#D)"><circle cx="207.5" cy="99.74" r="4.5" fill="#2380f7"/></g><path d="M9.598 9.95l67.584 53.583 5.578-.11 51.29-9.738 72.122 43.917" fill="none" stroke="#2380f7"/><path d="M207.18 82.844h-4.192v2.52a1.97 1.97 0 0 1 .816-.594c.37-.15.765-.227 1.164-.222a2.68 2.68 0 0 1 1.48.378c.382.24.685.588.87 1 .192.434.288.905.282 1.38.036.787-.23 1.56-.744 2.156-.565.576-1.355.876-2.16.822a3.16 3.16 0 0 1-2.148-.708c-.546-.476-.868-1.16-.888-1.884h1.344c.05.393.24.754.534 1.02a1.59 1.59 0 0 0 1.086.372 1.5 1.5 0 0 0 1.224-.492c.287-.374.432-.837.408-1.308a1.67 1.67 0 0 0-.42-1.206c-.32-.308-.756-.467-1.2-.438a1.89 1.89 0 0 0-.966.24 1.47 1.47 0 0 0-.606.636h-1.332v-4.88h5.448zm2.9 5.88v1.512h-1.544v-1.512zm.792-.312V87.26l4.216-5.568h1.464v5.52h1.188v1.2h-1.188v1.824h-1.38v-1.824zm4.396-5.088l-2.98 3.888h2.98zm5-1.68a1.78 1.78 0 0 1 1.308.5 1.81 1.81 0 0 1 .5 1.35 1.79 1.79 0 0 1-.5 1.344c-.352.334-.823.512-1.308.492-.485.017-.957-.16-1.3-.494a1.78 1.78 0 0 1-.51-1.344 1.8 1.8 0 0 1 1.824-1.848zm5.076.108l-4.784 8.484h-1.344l4.8-8.484zm-5.956 1.74c-.014.264.072.523.24.726a.81.81 0 0 0 .636.27.82.82 0 0 0 .642-.276 1.04 1.04 0 0 0 .246-.72 1.06 1.06 0 0 0-.246-.732.82.82 0 0 0-.642-.276.8.8 0 0 0-.636.276c-.168.206-.253.467-.24.732zm4.92 3.168c.486-.02.96.158 1.314.492a1.78 1.78 0 0 1 .51 1.344 1.8 1.8 0 0 1-1.824 1.85c-.483.016-.952-.164-1.3-.5a1.8 1.8 0 0 1-.51-1.35c-.024-.498.16-.983.5-1.338.347-.334.815-.514 1.296-.498zm-.88 1.836c-.013.265.072.526.24.732a.8.8 0 0 0 .636.276.82.82 0 0 0 .642-.276 1.06 1.06 0 0 0 .242-.732 1.04 1.04 0 0 0-.246-.72.82.82 0 0 0-.642-.276.8.8 0 0 0-.636.276 1.06 1.06 0 0 0-.236.72z"/></g></svg>